# xmcd
#
# Track frame offsets:
#	150
#	13781
#	26134
#	36632
#	52486
#	63969
#	74720
#	86003
#	98468
#	110345
#	121824
# Disc length: 1774 seconds
# Revision: 1
# Processed by: cddbd v1.5.2PL0 Copyright (c) Steve Scherf et al.
#
# Submitted via: libkcddb 0.31
#
DISCID=9d06ec0b
DTITLE=The Osborne Brothers - Ru-Beeee
DYEAR=1970
DGENRE=Bluegrass
TTITLE0=Ruby, Are You Mad
TTITLE1=Listen To The Rain
TTITLE2=Thanks For All The Yesterdays
TTITLE3=Siempre
TTITLE4=Let Me Be The First To Know
TTITLE5=The Fightin' Side Of Me
TTITLE6=Tennessee Hound Dog
TTITLE7=World Of Forgotten People
TTITLE8=Somebody's Back In Town
TTITLE9=Put It Off Until Tomorrow
TTITLE10=Mid Night Angel
EXTD=
EXTT0=
EXTT1=
EXTT2=
EXTT3=
EXTT4=
EXTT5=
EXTT6=
EXTT7=
EXTT8=
EXTT9=
EXTT10=
PLAYORDER=
